<?xml version="1.0" standalone="no"?>
<!DOCTYPE svg PUBLIC "-//W3C//DTD SVG 20010904//EN"
 "http://www.w3.org/TR/2001/REC-SVG-20010904/DTD/svg10.dtd">
<svg version="1.0" xmlns="http://www.w3.org/2000/svg"
 width="839.000000pt" height="839.000000pt" viewBox="0 0 839.000000 839.000000"
 preserveAspectRatio="xMidYMid meet">
<metadata>
Created by potrace 1.11, written by Peter Selinger 2001-2013
</metadata>
<g transform="translate(0.000000,839.000000) scale(0.100000,-0.100000)"
fill="#000000" stroke="none">
<path d="M100 7400 l0 -500 100 0 100 0 0 -200 0 -200 100 0 100 0 0 -200 0
-200 100 0 100 0 0 -100 0 -100 100 0 100 0 0 -100 0 -100 100 0 100 0 0 -100
0 -100 100 0 100 0 0 -200 0 -200 -100 0 -100 0 0 -900 0 -900 -100 0 -100 0
0 -700 0 -700 100 0 100 0 0 -100 0 -100 100 0 100 0 0 -100 0 -100 100 0 100
0 0 -100 0 -100 100 0 100 0 0 -100 0 -100 200 0 200 0 0 -100 0 -100 200 0
200 0 0 -100 0 -100 300 0 300 0 0 -100 0 -100 1100 0 1100 0 0 100 0 100 300
0 300 0 0 100 0 100 200 0 200 0 0 100 0 100 200 0 200 0 0 100 0 100 100 0
100 0 0 100 0 100 100 0 100 0 0 100 0 100 100 0 100 0 0 100 0 100 100 0 100
0 0 700 0 700 -100 0 -100 0 0 900 0 900 -100 0 -100 0 0 200 0 200 100 0 100
0 0 100 0 100 100 0 100 0 0 100 0 100 100 0 100 0 0 100 0 100 100 0 100 0 0
200 0 200 100 0 100 0 0 200 0 200 100 0 100 0 0 500 0 500 -400 0 -400 0 0
-100 0 -100 -300 0 -300 0 0 -100 0 -100 -200 0 -200 0 0 -100 0 -100 -100 0
-100 0 0 -100 0 -100 -100 0 -100 0 0 -100 0 -100 -100 0 -100 0 0 -100 0
-100 -100 0 -100 0 0 -100 0 -100 -200 0 -200 0 0 100 0 100 -1100 0 -1100 0
0 -100 0 -100 -200 0 -200 0 0 100 0 100 -100 0 -100 0 0 100 0 100 -100 0
-100 0 0 100 0 100 -100 0 -100 0 0 100 0 100 -100 0 -100 0 0 100 0 100 -200
0 -200 0 0 100 0 100 -300 0 -300 0 0 100 0 100 -400 0 -400 0 0 -500z"/>
</g>
</svg>
